<svg id="Capa_1" enable-background="new 0 0 511.996 511.996" height="512" viewBox="0 0 511.996 511.996" width="512" xmlns="http://www.w3.org/2000/svg"><g><g><path d="m501.939 262.189-239.75 239.75c-3.419 3.419-8.962 3.419-12.381 0l-239.751-239.75c-3.419-3.419-3.419-8.962 0-12.381l239.751-239.751c3.419-3.419 8.962-3.419 12.381 0l239.751 239.751c3.418 3.418 3.418 8.962-.001 12.381z" fill="#838383"/></g><g><path d="m501.938 262.188-239.75 239.75c-3.42 3.42-8.96 3.42-12.38 0l-4.04-4.04 235.71-235.71c3.41-3.42 3.41-8.96 0-12.38l-235.71-235.71 4.04-4.04c3.42-3.42 8.96-3.42 12.38 0l239.75 239.75c3.42 3.42 3.42 8.96 0 12.38z" fill="#6b6b6b"/></g><g><path d="m452.915 260.955-191.96 191.96c-2.737 2.737-7.176 2.737-9.913 0l-191.96-191.96c-2.737-2.737-2.737-7.176 0-9.913l191.96-191.96c2.737-2.737 7.176-2.737 9.913 0l191.96 191.96c2.737 2.737 2.737 7.175 0 9.913z" fill="#fee45a"/></g><g><path d="m452.918 260.958-191.96 191.96c-2.74 2.73-7.18 2.73-9.92 0l-5.1-5.1 186.85-186.86c2.73-2.74 2.73-7.18 0-9.92l-186.85-186.85 5.1-5.11c2.74-2.73 7.18-2.73 9.92 0l191.96 191.96c2.73 2.74 2.73 7.18 0 9.92z" fill="#fedf30"/></g><g><path d="m228.695 158.299 8.041 133.709c.684 10.135 9.104 18.006 19.262 18.006 10.158 0 18.578-7.871 19.262-18.006l8.041-133.709c1.067-15.803-11.464-29.208-27.303-29.208-15.839 0-28.37 13.406-27.303 29.208z" fill="#838383"/></g><g><path d="m283.298 158.298-8.04 133.71c-.34 5.07-2.62 9.57-6.08 12.8-3.46 3.24-8.1 5.21-13.18 5.21-3.46 0-6.72-.91-9.53-2.53 1.32-.74 2.55-1.65 3.65-2.68 3.46-3.23 5.74-7.73 6.08-12.8l8.04-133.71c.84-12.45-6.76-23.42-17.77-27.51 2.96-1.1 6.17-1.7 9.53-1.7 15.84 0 28.37 13.41 27.3 29.21z" fill="#6b6b6b"/></g><g><circle cx="255.998" cy="361.72" fill="#838383" r="21.185"/></g><g><path d="m277.188 361.718c0 11.7-9.49 21.19-21.19 21.19-9.24 0-17.1-5.91-19.99-14.16 1.74.46 3.56.71 5.45.71 11.7 0 21.19-9.48 21.19-21.18 0-2.46-.42-4.83-1.2-7.03 9.06 2.4 15.74 10.65 15.74 20.47z" fill="#6b6b6b"/></g><g><path d="m507.243 244.504-239.751-239.751c-6.338-6.338-16.65-6.338-22.988 0l-239.751 239.751c-6.337 6.337-6.337 16.65 0 22.987l142.742 142.742c2.93 2.929 7.678 2.929 10.607 0s2.929-7.678 0-10.606l-142.742-142.742c-.489-.489-.489-1.285 0-1.774l239.751-239.751c.488-.489 1.285-.489 1.773 0l239.751 239.751c.489.489.489 1.285 0 1.774l-239.75 239.751c-.488.489-1.285.489-1.773 0l-72.763-72.762c-2.929-2.928-7.677-2.929-10.607 0-2.929 2.929-2.929 7.678 0 10.606l72.763 72.762c3.169 3.169 7.332 4.753 11.494 4.753s8.325-1.584 11.494-4.753l239.751-239.751c6.336-6.337 6.336-16.649-.001-22.987z"/><path d="m255.998 462.468c3.875 0 7.519-1.509 10.26-4.25l191.961-191.96c2.74-2.74 4.249-6.384 4.249-10.26s-1.509-7.52-4.249-10.26l-191.961-191.96c-2.741-2.741-6.385-4.25-10.26-4.25s-7.519 1.509-10.26 4.25l-191.961 191.96c-2.74 2.74-4.249 6.384-4.249 10.26s1.509 7.52 4.249 10.26l191.961 191.96c2.741 2.741 6.385 4.25 10.26 4.25zm0-397.737 191.267 191.267-191.267 191.267-191.267-191.267z"/><path d="m255.998 317.514c14.052 0 25.799-10.982 26.748-25.056l4.086-67.934c.249-4.135-2.901-7.688-7.036-7.937-4.138-.256-7.688 2.901-7.937 7.036l-4.083 67.879c-.416 6.174-5.59 11.011-11.778 11.011s-11.362-4.836-11.775-10.956l-8.044-133.764c-.375-5.548 1.51-10.84 5.307-14.903 3.798-4.063 8.951-6.3 14.513-6.3s10.715 2.237 14.513 6.3c3.797 4.063 5.682 9.355 5.304 14.958l-1.875 31.137c-.249 4.134 2.9 7.688 7.035 7.937 4.179.255 7.688-2.901 7.938-7.036l1.872-31.082c.647-9.596-2.747-19.13-9.315-26.156-6.568-7.027-15.852-11.057-25.471-11.057s-18.902 4.03-25.471 11.057c-6.568 7.026-9.963 16.56-9.318 26.101l8.044 133.764c.944 14.019 12.691 25.001 26.743 25.001z"/><path d="m284.683 361.72c0-15.817-12.868-28.685-28.685-28.685s-28.685 12.868-28.685 28.685 12.868 28.685 28.685 28.685 28.685-12.868 28.685-28.685zm-42.37 0c0-7.546 6.139-13.685 13.685-13.685s13.685 6.139 13.685 13.685-6.139 13.685-13.685 13.685-13.685-6.139-13.685-13.685z"/></g></g></svg>